# xmcd CD database file
#
# Track frame offsets:
#	150
#	14022
#	30519
#	45992
#	64739
#
# Disc length: 1214 seconds
#
# Revision: 0
# Processed by: cddbd v1.5.2PL0 Copyright (c) Steve Scherf et al.
# Submitted via: CD2WAV32(JP) R3.22
#
DISCID=3604bc05
DTITLE=AMEMIYA - 冷やし中華はじめました
DYEAR=2011
DGENRE=Rock
TTITLE0=冷やし中華はじめました
TTITLE1=東京ウォーカーに載りました
TTITLE2=この売り場から一等が出ました
TTITLE3=ご飯のおかわり自由です
TTITLE4=冷やし中華はじめました　～バンドはじめましたバージョン～
EXTD=
EXTT0=
EXTT1=
EXTT2=
EXTT3=
EXTT4=
PLAYORDER=
